<?xml version="1.0" encoding="iso-8859-1"?>
<!-- Uploaded to: SVG Repo, www.svgrepo.com, Generator: SVG Repo Mixer Tools -->
<svg fill="#000000" height="800px" width="800px" version="1.1" id="Layer_1" xmlns="http://www.w3.org/2000/svg" xmlns:xlink="http://www.w3.org/1999/xlink" 
	 viewBox="0 0 511.999 511.999" xml:space="preserve">
<g>
	<g>
		<circle cx="376.764" cy="44.591" r="44.591"/>
	</g>
</g>
<g>
	<g>
		<path d="M484.939,479.193l-34.458-91.36v28.553c0,14.721-11.977,26.697-26.697,26.697h-4.284l20.073,53.22
			c4.727,12.535,18.718,18.85,31.239,14.128C483.338,505.707,489.664,491.72,484.939,479.193z"/>
	</g>
</g>
<g>
	<g>
		<path d="M432.724,295.969c4.416-10.816,26.077-63.878,30.506-74.727c2.552-6.253,1.818-13.375-1.993-18.989l-47.677-70.184
			l38.738,35.618l-3.281-38.157c-1.425-16.575-16.017-28.856-32.592-27.432l-53.521,4.601
			c-16.575,1.425-28.856,16.017-27.432,32.592L338,168.694l1.528,17.778l-11.593,21.941c-75.191,7.579-70.085,7.018-71.555,7.317
			c7.357,11.961,7.99,27.019,0.992,39.766c3.529,0.536-1.348,0.787,78.216-7.244c3.489-0.352,6.68-2.119,8.829-4.889l3.418,39.754
			l-33.323,73.737c-0.669,1.48-1.189,3.025-1.548,4.609l-27.49,120.911c-2.968,13.058,5.212,26.047,18.265,29.015
			c13.059,2.969,26.047-5.213,29.015-18.265l26.947-118.529l14.717-32.566c0-4.024-0.829-14.382,8.377-23.06v-6.271
			c-8.568-11.014-10.917-25.912-5.439-39.331l23.614-57.847l-22.422-63.08l43.176,63.558c-2.799,6.857-23.612,57.841-26.412,64.7
			c-3.18,7.791-1.195,16.557,4.769,22.245c0,9.601,0,16.868,0,26.114c-4.697,0.514-8.377,4.49-8.377,9.352v77.979
			c0,5.252,4.287,9.411,9.411,9.411c9.063-0.001,14.8-0.001,22.669-0.001c5.198,0,9.411-4.213,9.411-9.411v-77.979
			c0-4.651-3.309-9.411-10.061-9.411v-22.635C427.257,304.278,430.792,300.702,432.724,295.969z"/>
	</g>
</g>
<g>
	<g>
		<path d="M461.646,276.434c-11.722,28.716-12.673,33.67-21.053,41.253c11.584,9.417,9.887,21.162,9.887,32.463
			C457.257,306.985,461.646,276.434,461.646,276.434z"/>
	</g>
</g>
<g>
	<g>
		<circle cx="135.227" cy="44.591" r="44.591"/>
	</g>
</g>
<g>
	<g>
		<path d="M227.571,216.86l-67.803-16.922l-25.763-72.387l37.641,55.362l1.105,0.276l3.774-43.898
			c1.425-16.575-10.856-31.168-27.432-32.592l-53.521-4.602c-16.575-1.425-31.166,10.856-32.592,27.432
			c-0.484,5.623-11.858,154.1-11.858,154.1c0.214,1.821,4.689,30.193,14.573,93.131L27.06,479.194
			c-4.725,12.528,1.601,26.514,14.128,31.239c12.529,4.724,26.514-1.602,31.239-14.128l40.895-108.425
			c1.481-3.926,1.917-8.17,1.266-12.315c-1.248-7.948-12.153-77.408-13.763-87.662l12.787,1.099l38.682,85.594l26.947,118.529
			c2.968,13.054,15.957,21.234,29.015,18.265c13.056-2.969,21.233-15.959,18.265-29.015l-27.49-120.911
			c-0.36-1.584-0.879-3.129-1.548-4.609l-33.323-73.737l1.721-20.02l-31.103-7.762c-17.444-4.354-27.612-19.588-28.719-29.491
			l-9.175-82.09l28.45,79.935c2.255,6.332,7.536,11.178,14.142,12.828l78.313,19.545c11.638,2.909,23.187-4.924,24.892-16.739
			C244.14,229.208,237.742,219.4,227.571,216.86z"/>
	</g>
</g>
</svg>